# xmcd
#
# Track frame offsets:
# 150
# 10007
# 19805
# 37465
# 55146
# 70782
# 86422
# 100881
# 115292
# 130656
# 146090
# 161007
# 175902
# 188788
# 201692
# 219364
# 239821
# 258830
# 275263
# 285259
#
# Disc length: 3933 seconds
#
# Revision: 1
# Processed by: cddbd v1.5.2PL0 Copyright (c) Steve Scherf et al.
# Submitted via: Easy CD Ripper 2.3.10
#
DISCID=270f5b14
DTITLE=Dave Floyd - I wish you love
DYEAR=1999
DGENRE=Dance
TTITLE0=QUICKSTEP Chinatown-Hello Dolly
TTITLE1=QUICKSTEP Much Binding In The Marsh-Shine
TTITLE2=RUMBA Pretend-Letters in the Sand
TTITLE3=RUMBA If I Give My Heart to You-You My Love
TTITLE4=FOXTROT Trust In Me-Embrace You
TTITLE5=FOXTROT May I Have The Next Dream With You-How Soon
TTITLE6=TANGO I Wish You Love-Memory
TTITLE7=TANGO Taking a Chance on Love-You Made Me Care
TTITLE8=WALTZ Adoration Waltz-The Last Waltz of the Evening
TTITLE9=WALTZ Let Me Be Loved-The End of the World
TTITLE10=CHA CHA Super Trouper-Money Money Money
TTITLE11=CHA CHA Over the Rainbow-Three Coins in a Fountain
TTITLE12=JIVE Deed I Do-Please Don't Talk About Me when I'm Gone
TTITLE13=JIVE Kis The Boys Goodbye-Aint Misbehavin'
TTITLE14=RUMBA Love Letters-A Very Precious Love
TTITLE15=RUMBA Always on my Mind-Are You Lonesome Tonigh
TTITLE16=SAUNTER All of You-This is My Lovely Day
TTITLE17=SAUNTER May You Always-Hurt
TTITLE18=SWING Ma He's Making Eyes At Me-Yankee Doodle Dandy
TTITLE19=SWING Rolling Round The World-Broadway melody
EXTD=I read this info. from the disk: Maestro Records Ltd. www.maestrorecorder.com.  Also, WMP finds this track and title when CD is inserted.
EXTT0=
EXTT1=
EXTT2=
EXTT3=
EXTT4=
EXTT5=
EXTT6=
EXTT7=
EXTT8=
EXTT9=
EXTT10=
EXTT11=
EXTT12=
EXTT13=
EXTT14=
EXTT15=
EXTT16=
EXTT17=
EXTT18=
EXTT19=
PLAYORDER=
